<svg xmlns="http://www.w3.org/2000/svg" width="74.918" height="16.322" viewBox="0 0 74.918 16.322">
  <g id="health" transform="translate(0 0)">
    <path id="Path_3" data-name="Path 3" d="M3132.071,2610.24v3.387h-5.861v-3.387h-.766v8.069h.766v-3.916h5.861v3.916h.766v-8.069Z" transform="translate(-3124.146 -2602.201)" fill="#59a947"/>
    <path id="Path_4" data-name="Path 4" d="M3246.646,2628.206a2.369,2.369,0,0,1-.66,1.112,2.184,2.184,0,0,1-1.539.564,2.013,2.013,0,0,1-1.762-.82v.014a3.411,3.411,0,0,1-.524-1.788h5.364a6.575,6.575,0,0,0-.175-1.587,3.408,3.408,0,0,0-.538-1.2,2.7,2.7,0,0,0-2.339-1.143,2.783,2.783,0,0,0-2.3,1.17,4.02,4.02,0,0,0-.765,2.459,4.205,4.205,0,0,0,.7,2.541,2.7,2.7,0,0,0,2.366,1.1,2.933,2.933,0,0,0,2.017-.712,3.113,3.113,0,0,0,.926-1.717Zm-4.263-2.551a2.753,2.753,0,0,1,.424-.732,2.2,2.2,0,0,1,3.387-.027,2.826,2.826,0,0,1,.592,1.653h-4.611a3.486,3.486,0,0,1,.209-.894" transform="translate(-3231.764 -2614.381)" fill="#59a947"/>
    <path id="Path_5" data-name="Path 5" d="M3777.738,2628.206a2.375,2.375,0,0,1-.66,1.112,2.185,2.185,0,0,1-1.54.564,2.012,2.012,0,0,1-1.761-.82v.014a3.413,3.413,0,0,1-.524-1.788h5.364a6.575,6.575,0,0,0-.175-1.587,3.421,3.421,0,0,0-.538-1.2,2.707,2.707,0,0,0-2.339-1.143,2.783,2.783,0,0,0-2.3,1.17,4.018,4.018,0,0,0-.766,2.459,4.2,4.2,0,0,0,.7,2.541,2.7,2.7,0,0,0,2.365,1.1,2.932,2.932,0,0,0,2.017-.712,3.116,3.116,0,0,0,.926-1.717Zm-4.263-2.551a2.769,2.769,0,0,1,.422-.732,2.068,2.068,0,0,1,1.694-.807,2.044,2.044,0,0,1,1.694.78,2.826,2.826,0,0,1,.591,1.653h-4.611a3.436,3.436,0,0,1,.209-.894" transform="translate(-3724.186 -2614.381)" fill="#414142"/>
    <path id="Path_6" data-name="Path 6" d="M3343.1,2629.44a.1.1,0,0,0-.02.027.106.106,0,0,1-.02.027,2.809,2.809,0,0,1-2.352,1.142,2.869,2.869,0,0,1-2.366-1.142,4.432,4.432,0,0,1,.014-5,3.045,3.045,0,0,1,3.7-.82,3.114,3.114,0,0,1,1.041.887v-1.049h.753v6.977h-.753Zm0-2.447a3.319,3.319,0,0,0-.6-2,2.111,2.111,0,0,0-1.775-.874,2.065,2.065,0,0,0-1.774.874,3.11,3.11,0,0,0-.631,2,3.251,3.251,0,0,0,.617,2.017,2.075,2.075,0,0,0,1.788.874,2.107,2.107,0,0,0,1.775-.874,3.341,3.341,0,0,0,.6-2.017" transform="translate(-3320.859 -2614.381)" fill="#59a947"/>
    <path id="Path_7" data-name="Path 7" d="M3440.108,2598.308q.014.753.632.752.121,0,.315-.013c.13-.009.29-.023.478-.041v.739c-.233.018-.424.034-.572.047s-.244.02-.289.02q-1.3,0-1.317-1.464v-8.039h.752Z" transform="translate(-3415.255 -2583.705)" fill="#59a947"/>
    <path id="Path_8" data-name="Path 8" d="M3471.107,2601.734h-1.452v6.224h-.752v-6.224h-.794v-.752h.794v-1.331l.752-.565v1.9h1.452Z" transform="translate(-3441.917 -2591.851)" fill="#59a947"/>
    <path id="Path_9" data-name="Path 9" d="M3515.169,2591.616h.752l.027,3.24a2.311,2.311,0,0,1,.847-.652,2.875,2.875,0,0,1,1.21-.236,2.959,2.959,0,0,1,1.015.168,2.247,2.247,0,0,1,.8.491,2.213,2.213,0,0,1,.523.8,2.947,2.947,0,0,1,.188,1.1v4.5h-.739v-4.463a2.174,2.174,0,0,0-.148-.847,1.62,1.62,0,0,0-.39-.571,1.557,1.557,0,0,0-.564-.329,2.168,2.168,0,0,0-.686-.107,1.938,1.938,0,0,0-.9.2,1.992,1.992,0,0,0-.652.531,2.309,2.309,0,0,0-.4.773,3.2,3.2,0,0,0-.134.927v3.885h-.752Z" transform="translate(-3485.551 -2584.918)" fill="#59a947"/>
    <path id="Path_10" data-name="Path 10" d="M3604.607,2592.1a2.421,2.421,0,0,1-.3,1.2,2.655,2.655,0,0,1-.846.907,3.94,3.94,0,0,1-1.055.458,4.719,4.719,0,0,1-1.257.161,5.109,5.109,0,0,1-1.559-.215,3.559,3.559,0,0,1-1.183-.631,3.654,3.654,0,0,1-1.075-2.917h.766q0,3,3.052,3a3.434,3.434,0,0,0,1.855-.47,2.014,2.014,0,0,0,.612-.652,1.669,1.669,0,0,0,.222-.853,1.777,1.777,0,0,0-1.438-1.721h.013c-.081-.018-.166-.04-.256-.068s-.174-.049-.255-.067c-.412-.108-.836-.217-1.27-.329s-.867-.217-1.3-.316a2.276,2.276,0,0,1-1.734-2.258,2.315,2.315,0,0,1,1.1-2.07,4.092,4.092,0,0,1,2.258-.551q3.347,0,3.482,3.293h-.766q-.082-2.528-2.716-2.528a3.4,3.4,0,0,0-1.8.417,1.578,1.578,0,0,0-.793,1.438q0,1.157,1.438,1.6h-.014c.251.072.5.136.753.2s.5.123.753.2l.786.195.787.195a2.37,2.37,0,0,1,1.733,2.393" transform="translate(-3561.739 -2578.508)" fill="#414142"/>
    <path id="Path_11" data-name="Path 11" d="M3710.135,2592.083h-.753v-1.774h.753Zm0,7.729h-.753v-6.976h.753Z" transform="translate(-3665.682 -2583.705)" fill="#414142"/>
    <path id="Path_12" data-name="Path 12" d="M3730.309,2601.734h-1.452v6.224h-.752v-6.224h-.793v-.752h.793v-1.331l.752-.565v1.9h1.452Z" transform="translate(-3682.297 -2591.851)" fill="#414142"/>
    <path id="Path_13" data-name="Path 13" d="M3266.084,2518.048l.026-.2.154.195-.18.005m1.026.051.046-.135-.05,0,0-.014a.242.242,0,0,1,.046.017h0l.006,0h0a.264.264,0,0,1,.064.045Zm1.834.031h-.07l-.166,0a4.755,4.755,0,0,1-.991-.131l-.049-.012h-.086c-.123,0-.264-.007-.363-.013l-.055-.089-1.049-.077.063-.483a.55.55,0,0,0-.118-.025.575.575,0,0,0-.294.05l.181.683.051-.155.078.177-.122.005,0,.005-.017,0-.075,0-.084,0-.1.006c-.114.007-.287.019-.488.019a4.6,4.6,0,0,1-.631-.041l-.075-.01-.073.018a5.055,5.055,0,0,1-1.222.134,6.029,6.029,0,0,1-2.8-.934,6.553,6.553,0,0,1,2.452-.915l.77-.084-.53-.565a7.961,7.961,0,0,1-1.221-1.807,7.376,7.376,0,0,1,1.781.322l.595.193-.093-.618a.769.769,0,1,1,.618-.891l.457.5.2-.649a10.852,10.852,0,0,1,.592-1.488,7.657,7.657,0,0,1,.657,1.494l.2.651.458-.5a6.9,6.9,0,0,1,.662-.633,6.812,6.812,0,0,1-.037,1.515l-.091.616.594-.191a7.383,7.383,0,0,1,1.773-.319,8.138,8.138,0,0,1-1.172,1.754l-.514.563.758.083a6.531,6.531,0,0,1,2.452.915,6.012,6.012,0,0,1-2.8.934" transform="translate(-3249.376 -2510.474)" fill="#fff"/>
    <path id="Path_14" data-name="Path 14" d="M3352.458,2610.337l-.043-.052,0,0,.042.054Z" transform="translate(-3334.63 -2602.308)" fill="#fff"/>
    <path id="Path_15" data-name="Path 15" d="M3326.1,2504.292c.042-.127.091-.26.147-.4a4.512,4.512,0,0,1,.843-1.276,8.328,8.328,0,0,0-1.055-2.159,11.089,11.089,0,0,0-.932,2.151,4.5,4.5,0,0,1,.849,1.284c.056.136.1.268.147.4" transform="translate(-3309.299 -2500.461)" fill="#98c93e"/>
    <path id="Path_16" data-name="Path 16" d="M3307.4,2517.93a5.39,5.39,0,0,1,.259-1.557,7.351,7.351,0,0,0-1.243-1.084,7.839,7.839,0,0,0-.045,2.292,4.579,4.579,0,0,1,1.03.47c0-.04,0-.081,0-.121" transform="translate(-3291.862 -2514.221)" fill="#98c93e"/>
    <path id="Path_17" data-name="Path 17" d="M3352.963,2518.051a4.616,4.616,0,0,1,1.039-.474,7.825,7.825,0,0,0-.045-2.289,7.343,7.343,0,0,0-1.249,1.091,5.406,5.406,0,0,1,.257,1.551c0,.04,0,.081,0,.121" transform="translate(-3334.898 -2514.221)" fill="#98c93e"/>
    <path id="Path_18" data-name="Path 18" d="M3276,2544.923a3.952,3.952,0,0,1-.911-1.435,4.06,4.06,0,0,1-.248-.938,8.162,8.162,0,0,0-2.511-.354,8.959,8.959,0,0,0,1.549,2.473,3.657,3.657,0,0,1,.39-.022,4.748,4.748,0,0,1,1.731.277" transform="translate(-3260.358 -2539.159)" fill="#98c93e"/>
    <path id="Path_19" data-name="Path 19" d="M3355.578,2544.856a4.788,4.788,0,0,1,1.705-.267,3.65,3.65,0,0,1,.388.021,9.018,9.018,0,0,0,1.5-2.415,8.185,8.185,0,0,0-2.5.351,4.026,4.026,0,0,1-.248.942,4.152,4.152,0,0,1-.839,1.368" transform="translate(-3337.556 -2539.159)" fill="#98c93e"/>
    <path id="Path_20" data-name="Path 20" d="M3254.326,2577.206a4.392,4.392,0,0,1-.735-.638,7.637,7.637,0,0,0-3.124,1.3,7.161,7.161,0,0,0,3.513,1.322c1.605,0,2.547-.525,2.651-1.2a3.486,3.486,0,0,1-2.305-.787" transform="translate(-3240.169 -2571.034)" fill="#98c93e"/>
    <path id="Path_21" data-name="Path 21" d="M3345.637,2575.771a4.488,4.488,0,0,1-.79.7,3.619,3.619,0,0,1-2.237.8c.155.638,1.087,1.129,2.639,1.129a7.163,7.163,0,0,0,3.512-1.322,7.63,7.63,0,0,0-3.124-1.3" transform="translate(-3325.525 -2570.295)" fill="#98c93e"/>
    <path id="Path_22" data-name="Path 22" d="M3300.008,2533.594a4.788,4.788,0,0,0-1.705.267,4.155,4.155,0,0,0,.839-1.368,4.071,4.071,0,0,0,.249-.941,4.6,4.6,0,0,0-1.039.472c0-.04,0-.08,0-.12a5.376,5.376,0,0,0-.257-1.551,4.516,4.516,0,0,0-.843,1.277c-.055.136-.1.267-.147.4-.042-.128-.091-.259-.147-.4a4.483,4.483,0,0,0-.85-1.284,5.385,5.385,0,0,0-.259,1.558c0,.041,0,.08,0,.12a4.635,4.635,0,0,0-1.029-.47,4.067,4.067,0,0,0,.248.939,3.946,3.946,0,0,0,.911,1.436,4.744,4.744,0,0,0-1.731-.277,3.64,3.64,0,0,0-.389.021,4.383,4.383,0,0,0,.736.638,3.485,3.485,0,0,0,2.305.787,1.093,1.093,0,0,0,.2-.052,1.135,1.135,0,0,0,.268.063,3.627,3.627,0,0,0,2.237-.8,4.493,4.493,0,0,0,.789-.7,3.573,3.573,0,0,0-.388-.021" transform="translate(-3280.315 -2528.195)" fill="#59a947"/>
    <path id="Path_23" data-name="Path 23" d="M3309.946,2588.869a9.711,9.711,0,0,1-1.031-.164,8.442,8.442,0,0,0-1.391-.124h-1.4a5.059,5.059,0,0,0-.942.2,2.279,2.279,0,0,1-.379.115c-.1-.015-.069-.051-.08-.153a10.774,10.774,0,0,1,0-1.109c0-.188,0-.376,0-.563.127-.037.268.163.354.242a3.414,3.414,0,0,0,.487.387,2.1,2.1,0,0,0,.761.316,1.638,1.638,0,0,0,.581.062c.2-.042.417-.031.623-.058a1.839,1.839,0,0,1,.254-.013,2.282,2.282,0,0,0,.392-.019,1.714,1.714,0,0,0,.395-.153c.1-.044.186-.1.283-.15a1.236,1.236,0,0,0,.265-.144c.113-.088.224-.177.339-.262a1.511,1.511,0,0,1,.292-.2,1.577,1.577,0,0,1,.2-.005Z" transform="translate(-3290.373 -2580.769)" fill="#98c93e"/>
    <path id="Path_24" data-name="Path 24" d="M3310.546,2521.226a5.945,5.945,0,0,0-.734-.186,1.413,1.413,0,0,1-.149-.026.509.509,0,0,1-.251-.171.959.959,0,0,1-.234-.33.869.869,0,0,1,.032-.367,8.492,8.492,0,0,0,.2-.916c.021-.191.053-.441.073-.524s0-.089.153-.308a3.833,3.833,0,0,0,.388-.875,2.368,2.368,0,0,0,.087-.4c0-.069-.089-.172-.2-.278s-.71-.45-.808-.517a.567.567,0,0,1-.282-.331,1.957,1.957,0,0,1-.1-.5s0-.086-.006-.154-.021-.1-.036-.1-.047.031-.046.049c0,0,0-.082-.023-.07a.159.159,0,0,0-.059.125c-.008.081-.094.391-.1.444s-.077.248-.085.272a.319.319,0,0,1-.03.11c-.023.031-.588.411-.588.411s-.483.3-.49.308-.161.114-.178.167a.425.425,0,0,0-.005.2,2.6,2.6,0,0,0,.313.86s.212.361.244.428a.6.6,0,0,1,.076.278,2.506,2.506,0,0,0,.118.764,3.767,3.767,0,0,1,.151.616.84.84,0,0,1-.008.4.681.681,0,0,1-.456.461,1.867,1.867,0,0,1-.358.076s-.62.083-.791.334a.289.289,0,0,0-.027.176c.011.113.026.327.664.439a6.023,6.023,0,0,0,1.437.042c.2-.009.457-.023.6-.017a2.226,2.226,0,0,1,.354.022c.139.024.124.009.182.025s.112.027.14.006.049-.034.023-.075-.037-.064-.037-.064a5.394,5.394,0,0,0,.708.017c.226-.024.5-.129.523-.4s-.292-.389-.385-.419m-2.724-3.254a2,2,0,0,1-.214-.4c-.04-.126-.1-.266-.1-.266s-.011-.06,0-.077.326-.366.442-.483a5.7,5.7,0,0,1,.494-.4.412.412,0,0,0,.117-.1.513.513,0,0,0,.038-.069.353.353,0,0,0,.129.134c.083.047.547.452.632.521a2.291,2.291,0,0,1,.289.361c.016.031.017.037,0,.1a5.249,5.249,0,0,1-.225.481c-.037.055-.318.449-.376.51a1.034,1.034,0,0,1-.108.106.068.068,0,0,1-.04.01.058.058,0,0,1-.035-.046.323.323,0,0,1,.064-.175.594.594,0,0,0,.118-.32.047.047,0,0,0,.038.008c.047-.008.071-.095.076-.135s.025-.15-.045-.123l-.01,0a.83.83,0,0,0,0-.1c-.009-.194,0-.472-.287-.581a.417.417,0,0,0-.231.011s-.086,0-.111,0a.341.341,0,0,0-.2.066.457.457,0,0,0-.177.391,1.831,1.831,0,0,0,0,.187h0a.082.082,0,0,0-.067.055.27.27,0,0,0,.034.2.137.137,0,0,0,.055.056.307.307,0,0,1,.031.114.225.225,0,0,0,.044.137c.027.044.067.079.094.123a.482.482,0,0,1,.029.121.073.073,0,0,1-.024.027c-.007,0-.07.027-.171-.1s-.264-.3-.294-.339m1.684,3.913a.553.553,0,0,0-.189-.068.723.723,0,0,1-.236-.064.88.88,0,0,1-.141-.108.158.158,0,0,0-.151-.064.489.489,0,0,0-.15.083.316.316,0,0,1-.148.048.8.8,0,0,1-.144.006.811.811,0,0,1-.143-.012c-.085-.023-.2-.044-.319-.065l-.591-.1a3.559,3.559,0,0,0-.392-.016,1.446,1.446,0,0,1,.4-.015l.592.1c.119.021.237.043.318.065a.948.948,0,0,0,.139.013.993.993,0,0,0,.139-.006.281.281,0,0,0,.135-.044.526.526,0,0,1,.16-.087.186.186,0,0,1,.176.071.931.931,0,0,0,.136.105.693.693,0,0,0,.228.06.465.465,0,0,1,.195.081c.056.036.063.111.126.138-.07-.02-.087-.094-.139-.12m.456-.374a2.056,2.056,0,0,0-.465-.021c-.188.014-.363.051-.363.041s-.044,0-.112,0a.871.871,0,0,1-.118-.009.293.293,0,0,1-.125-.07.19.19,0,0,0-.243-.024c-.07.045-.113.1-.148.123a.553.553,0,0,1-.305.065.852.852,0,0,0,.29-.092c.028-.014.073-.074.149-.123a.229.229,0,0,1,.139-.038.3.3,0,0,1,.136.064.291.291,0,0,0,.227.073c.067,0,.11,0,.11,0s.169-.027.364-.042a2,2,0,0,1,.472.022.622.622,0,0,1,.285.12,1.08,1.08,0,0,0-.291-.09" transform="translate(-3291.884 -2514.16)" fill="#fff"/>
    <path id="Path_25" data-name="Path 25" d="M3110.271,2540.431H3109v3.777h-.318v-3.777h-1.273v-.323h2.864Z" transform="translate(-3107.406 -2537.222)" fill="#414142"/>
    <path id="Path_26" data-name="Path 26" d="M3155.973,2544.208h-.324v-1.974h-2.48v1.974h-.324v-4.1h.324v1.8h2.48v-1.8h.324Z" transform="translate(-3149.574 -2537.222)" fill="#414142"/>
    <path id="Path_27" data-name="Path 27" d="M3205.374,2544.208h-2.736v-4.1h2.714v.323h-2.389v1.479h2.247v.324h-2.247v1.65h2.411Z" transform="translate(-3195.783 -2537.222)" fill="#414142"/>
    <path id="Path_28" data-name="Path 28" d="M2.915-16.569a.539.539,0,0,1-.4-.168.552.552,0,0,1-.165-.4.56.56,0,0,1,.165-.4.535.535,0,0,1,.4-.17.549.549,0,0,1,.406.17.556.556,0,0,1,.168.4.547.547,0,0,1-.168.4A.553.553,0,0,1,2.915-16.569Zm5.157-.35a2.707,2.707,0,0,1-1.422.361,2.355,2.355,0,0,1-1.8-.724,2.623,2.623,0,0,1-.683-1.877,2.883,2.883,0,0,1,.736-2.065A2.576,2.576,0,0,1,6.874-22a2.736,2.736,0,0,1,1.209.254v.853A2.118,2.118,0,0,0,6.843-21.3a1.675,1.675,0,0,0-1.308.571,2.168,2.168,0,0,0-.51,1.5,2.065,2.065,0,0,0,.48,1.442,1.654,1.654,0,0,0,1.288.528,2.088,2.088,0,0,0,1.28-.452Zm3.069.361A2.412,2.412,0,0,1,9.3-17.288a2.7,2.7,0,0,1-.688-1.933,2.812,2.812,0,0,1,.716-2.047A2.575,2.575,0,0,1,11.264-22a2.333,2.333,0,0,1,1.816.716,2.84,2.84,0,0,1,.653,1.986,2.794,2.794,0,0,1-.7,1.994A2.465,2.465,0,0,1,11.142-16.559ZM11.2-21.3a1.584,1.584,0,0,0-1.27.546,2.242,2.242,0,0,0-.467,1.506,2.121,2.121,0,0,0,.472,1.458,1.605,1.605,0,0,0,1.265.533,1.523,1.523,0,0,0,1.242-.523,2.27,2.27,0,0,0,.434-1.488,2.309,2.309,0,0,0-.434-1.5A1.516,1.516,0,0,0,11.2-21.3Zm10.881,4.622h-.833v-2.986a2.253,2.253,0,0,0-.267-1.249,1.011,1.011,0,0,0-.9-.386,1.11,1.11,0,0,0-.907.488,1.865,1.865,0,0,0-.373,1.168v2.966h-.833v-3.088q0-1.534-1.183-1.534a1.1,1.1,0,0,0-.9.46,1.9,1.9,0,0,0-.356,1.2v2.966H14.7v-5.2h.833v.823h.02A1.767,1.767,0,0,1,17.167-22a1.506,1.506,0,0,1,.929.3,1.5,1.5,0,0,1,.543.78A1.856,1.856,0,0,1,20.367-22q1.717,0,1.717,2.118Z" transform="translate(52.835 32.619)" fill="#414142"/>
  </g>
</svg>
