<svg xmlns="http://www.w3.org/2000/svg" xmlns:xlink="http://www.w3.org/1999/xlink" width="64.994" height="15.363" viewBox="0 0 64.994 15.363">
  <defs>
    <radialGradient id="radial-gradient" cx="0.5" cy="0.5" r="0.608" gradientUnits="objectBoundingBox">
      <stop offset="0" stop-color="#fe1010"/>
      <stop offset="0" stop-color="#f8bcbc"/>
      <stop offset="0.1" stop-color="#f48e8e"/>
      <stop offset="0.159" stop-color="#f16969"/>
      <stop offset="0.213" stop-color="#ee4c4c"/>
      <stop offset="0.255" stop-color="#ec3737"/>
      <stop offset="0.318" stop-color="#eb2b2b"/>
      <stop offset="0.402" stop-color="#eb2727"/>
      <stop offset="0.674" stop-color="#cb2128"/>
      <stop offset="1" stop-color="#7c1618"/>
    </radialGradient>
    <clipPath id="clip-path">
      <path id="Path_140" data-name="Path 140" d="M314.981,3712.826a7.69,7.69,0,0,0,13.943,6.266,7.252,7.252,0,0,1-8.931-11.238,7.678,7.678,0,0,0-5.012,4.972m4.414-1.562a6.524,6.524,0,0,0,4.4,8.105,6.792,6.792,0,0,0,5.216-.414,7.684,7.684,0,0,0-.757-8.639,4.656,4.656,0,0,0-.663-.375,3.894,3.894,0,1,0-3.244,7.052,4.4,4.4,0,0,0,2.921.284,4.5,4.5,0,1,1-.523-8.363c.012,0,.021.01.033.013a7.579,7.579,0,0,0-3.99-1.411,6.209,6.209,0,0,0-3.389,3.748" transform="translate(-314.608 -3707.515)" fill="url(#radial-gradient)"/>
    </clipPath>
    <radialGradient id="radial-gradient-2" cx="0.5" cy="0.5" r="0.608" gradientUnits="objectBoundingBox">
      <stop offset="0" stop-color="#fe1010"/>
      <stop offset="0.004" stop-color="#f8bcbc"/>
      <stop offset="0.1" stop-color="#f48e8e"/>
      <stop offset="0.159" stop-color="#f16969"/>
      <stop offset="0.213" stop-color="#ee4c4c"/>
      <stop offset="0.255" stop-color="#ec3737"/>
      <stop offset="0.318" stop-color="#eb2b2b"/>
      <stop offset="0.402" stop-color="#eb2727"/>
      <stop offset="0.674" stop-color="#cb2128"/>
      <stop offset="1" stop-color="#7c1618"/>
    </radialGradient>
  </defs>
  <g id="cricket" transform="translate(0 0)">
    <g id="Group_645" data-name="Group 645" transform="translate(0 0)">
      <g id="Group_644" data-name="Group 644" transform="translate(0 0)" clip-path="url(#clip-path)">
        <rect id="Rectangle_117" data-name="Rectangle 117" width="23.493" height="22.965" transform="translate(-8.823 -4.998) rotate(-8)" fill="url(#radial-gradient-2)"/>
      </g>
    </g>
    <path id="Path_141" data-name="Path 141" d="M518.9,3721.671a4.259,4.259,0,0,1,0-5.174,3.669,3.669,0,0,1,2.628-.838h1.054a3.3,3.3,0,0,1,1.9.557,1.749,1.749,0,0,1,.824,1.526.46.46,0,0,1-.166.4.548.548,0,0,1-.321.12h-.562a.745.745,0,0,1-.675-.519,1.2,1.2,0,0,0-1.162-.746h-.841a1.765,1.765,0,0,0-1.4.444,3.851,3.851,0,0,0,0,3.29,1.76,1.76,0,0,0,1.4.447h.94a1.186,1.186,0,0,0,1.157-.746.75.75,0,0,1,.68-.525h.562a.426.426,0,0,1,.352.166.57.57,0,0,1,.13.359,1.746,1.746,0,0,1-.822,1.523,3.309,3.309,0,0,1-1.894.555h-1.153a3.674,3.674,0,0,1-2.628-.837" transform="translate(-501.379 -3714.992)"/>
    <path id="Path_142" data-name="Path 142" d="M626.38,3722.691q0,.2-.241.2h-1.134a.78.78,0,0,1-.394-.13.961.961,0,0,1-.329-.315l-.8-1.256a1.421,1.421,0,0,0-1.2-.774h-1.152v2.031a.443.443,0,0,1-.444.444H619.8a.437.437,0,0,1-.316-.13.424.424,0,0,1-.133-.315v-5.88a.441.441,0,0,1,.127-.317.418.418,0,0,1,.312-.132h3.9a2.666,2.666,0,0,1,1.773.58,1.945,1.945,0,0,1,.692,1.57q0,1.374-1.781,1.723a1.386,1.386,0,0,1,.524.357,5.178,5.178,0,0,1,.553.734l.86,1.365a.5.5,0,0,1,.076.241m-5.253-3.609h2.012a1.828,1.828,0,0,0,.857-.194.7.7,0,0,0,0-1.238,1.822,1.822,0,0,0-.857-.194h-2.012Z" transform="translate(-594.416 -3715.417)"/>
    <path id="Path_143" data-name="Path 143" d="M714.9,3722.459v-5.89a.45.45,0,0,1,.449-.449h.878a.447.447,0,0,1,.454.449v5.88a.423.423,0,0,1-.134.315.448.448,0,0,1-.319.13h-.878a.443.443,0,0,1-.317-.125.409.409,0,0,1-.132-.31" transform="translate(-682.15 -3715.417)"/>
    <path id="Path_144" data-name="Path 144" d="M749.38,3721.671a4.259,4.259,0,0,1,0-5.174,3.669,3.669,0,0,1,2.629-.838h1.053a3.3,3.3,0,0,1,1.9.557,1.748,1.748,0,0,1,.824,1.526.46.46,0,0,1-.165.4.549.549,0,0,1-.321.12h-.562a.747.747,0,0,1-.676-.519A1.194,1.194,0,0,0,752.9,3717h-.841a1.765,1.765,0,0,0-1.4.444,3.853,3.853,0,0,0,0,3.29,1.76,1.76,0,0,0,1.4.447H753a1.186,1.186,0,0,0,1.157-.746.75.75,0,0,1,.68-.525h.562a.425.425,0,0,1,.352.166.568.568,0,0,1,.13.359,1.745,1.745,0,0,1-.822,1.523,3.308,3.308,0,0,1-1.894.555h-1.152a3.675,3.675,0,0,1-2.629-.837" transform="translate(-713.007 -3714.992)"/>
    <path id="Path_145" data-name="Path 145" d="M856.835,3722.582c0,.139-.082.208-.246.208h-1.082a.771.771,0,0,1-.4-.13,1,1,0,0,1-.33-.314l-.832-1.317a2.85,2.85,0,0,0-.6-.726,1.13,1.13,0,0,0-.728-.244h-1.016v2.3a.412.412,0,0,1-.13.31.435.435,0,0,1-.314.125h-.888a.427.427,0,0,1-.316-.135.437.437,0,0,1-.132-.319v-5.87a.447.447,0,0,1,.132-.322.427.427,0,0,1,.316-.137h.888a.419.419,0,0,1,.314.137.453.453,0,0,1,.13.322v2.262h1.016a1.209,1.209,0,0,0,.73-.227,2.223,2.223,0,0,0,.6-.731l.732-1.3a.769.769,0,0,1,.68-.459h1.091c.152,0,.227.066.227.2a.574.574,0,0,1-.081.26l-1.025,1.856a2.743,2.743,0,0,1-.5.671,1.548,1.548,0,0,1-.719.373,1.334,1.334,0,0,1,.64.392,4.307,4.307,0,0,1,.579.709l1.181,1.88a.485.485,0,0,1,.081.236" transform="translate(-806.04 -3715.312)"/>
    <path id="Path_146" data-name="Path 146" d="M943.823,3722.441v-5.881a.418.418,0,0,1,.133-.312.44.44,0,0,1,.317-.127h5.446a.424.424,0,0,1,.314.132.438.438,0,0,1,.13.317v.445a.444.444,0,0,1-.444.443H945.6v1.375h3.543a.445.445,0,0,1,.444.444v.444a.442.442,0,0,1-.444.443H945.6v1.394h4.1a.419.419,0,0,1,.308.128.425.425,0,0,1,.127.312v.454a.427.427,0,0,1-.132.314.438.438,0,0,1-.316.13h-5.422a.448.448,0,0,1-.449-.453" transform="translate(-892.347 -3715.417)"/>
    <path id="Path_147" data-name="Path 147" d="M1024.826,3717.014v-.445a.435.435,0,0,1,.448-.449h5.994a.435.435,0,0,1,.449.449v.445a.427.427,0,0,1-.127.318.442.442,0,0,1-.322.125h-2.106v5a.412.412,0,0,1-.13.31.437.437,0,0,1-.315.125h-.892a.437.437,0,0,1-.315-.125.412.412,0,0,1-.13-.31v-5h-2.106a.442.442,0,0,1-.322-.125.427.427,0,0,1-.127-.318" transform="translate(-966.723 -3715.417)"/>
    <path id="Path_148" data-name="Path 148" d="M521.584,3816.4a3.486,3.486,0,0,1,0-4.233,3,3,0,0,1,2.151-.686h.862a2.706,2.706,0,0,1,1.551.456,1.43,1.43,0,0,1,.674,1.248.377.377,0,0,1-.135.327.456.456,0,0,1-.263.1h-.46a.611.611,0,0,1-.552-.426.979.979,0,0,0-.95-.61h-.688a1.443,1.443,0,0,0-1.147.364,3.152,3.152,0,0,0,0,2.691,1.44,1.44,0,0,0,1.147.365h.769a.972.972,0,0,0,.946-.611.612.612,0,0,1,.556-.429h.46a.346.346,0,0,1,.288.135.463.463,0,0,1,.106.293,1.427,1.427,0,0,1-.672,1.246,2.7,2.7,0,0,1-1.549.454h-.943a3.008,3.008,0,0,1-2.151-.684" transform="translate(-503.994 -3802.975)"/>
    <path id="Path_149" data-name="Path 149" d="M609.491,3815.879a4.6,4.6,0,0,1-5.046,0,3.743,3.743,0,0,1,0-4.777,4.607,4.607,0,0,1,5.046,0,3.747,3.747,0,0,1,0,4.777m-1.149-3.89a2.123,2.123,0,0,0-2.747,0,2.856,2.856,0,0,0,0,3,2.13,2.13,0,0,0,2.747,0,2.868,2.868,0,0,0,0-3" transform="translate(-579.943 -3801.937)"/>
    <path id="Path_150" data-name="Path 150" d="M695.8,3815.538v-3.245a.4.4,0,0,1,.4-.4h.786a.377.377,0,0,1,.277.118.381.381,0,0,1,.118.281v3.253a1.342,1.342,0,0,0,.271.92,1.069,1.069,0,0,0,.839.3h.673a1.07,1.07,0,0,0,.839-.3,1.343,1.343,0,0,0,.271-.92v-3.253a.386.386,0,0,1,.116-.281.376.376,0,0,1,.28-.118h.782a.392.392,0,0,1,.29.118.381.381,0,0,1,.118.281v3.245a2.325,2.325,0,0,1-.677,1.785,2.791,2.791,0,0,1-1.976.632h-.757a2.789,2.789,0,0,1-1.977-.632,2.329,2.329,0,0,1-.674-1.785" transform="translate(-664.619 -3803.355)"/>
    <path id="Path_151" data-name="Path 151" d="M783.555,3817.526v-5.232a.394.394,0,0,1,.113-.282.372.372,0,0,1,.278-.117h1.236a.54.54,0,0,1,.311.117,1.045,1.045,0,0,1,.269.282l2.538,3.9v-3.913a.375.375,0,0,1,.116-.278.386.386,0,0,1,.28-.113h.723a.391.391,0,0,1,.395.4v5.232a.4.4,0,0,1-.395.4h-1.4a.6.6,0,0,1-.337-.116.916.916,0,0,1-.273-.28l-2.324-3.605v3.605a.4.4,0,0,1-.395.4h-.74a.387.387,0,0,1-.281-.116.379.379,0,0,1-.118-.28" transform="translate(-745.19 -3803.355)"/>
    <path id="Path_152" data-name="Path 152" d="M868.476,3812.688v-.4a.387.387,0,0,1,.4-.4h5.334a.386.386,0,0,1,.285.113.39.39,0,0,1,.114.286v.4a.382.382,0,0,1-.114.284.39.39,0,0,1-.285.11h-1.875v4.451a.371.371,0,0,1-.116.276.391.391,0,0,1-.28.111h-.794a.389.389,0,0,1-.279-.111.368.368,0,0,1-.116-.276v-4.451h-1.874a.39.39,0,0,1-.286-.11.381.381,0,0,1-.114-.284" transform="translate(-823.164 -3803.355)"/>
    <path id="Path_153" data-name="Path 153" d="M958.069,3817.741c0,.121-.071.181-.214.181h-1.009a.689.689,0,0,1-.351-.115.851.851,0,0,1-.292-.28l-.714-1.118a1.266,1.266,0,0,0-1.068-.688H953.4v1.806a.394.394,0,0,1-.395.4h-.79a.387.387,0,0,1-.281-.115.378.378,0,0,1-.118-.28v-5.232a.39.39,0,0,1,.113-.281.369.369,0,0,1,.277-.118h3.467a2.375,2.375,0,0,1,1.579.516,1.731,1.731,0,0,1,.616,1.4q0,1.222-1.584,1.534a1.227,1.227,0,0,1,.466.317,4.573,4.573,0,0,1,.492.655l.765,1.213a.442.442,0,0,1,.067.215m-4.674-3.211h1.791a1.614,1.614,0,0,0,.762-.173.623.623,0,0,0,0-1.1,1.631,1.631,0,0,0-.762-.173H953.4Z" transform="translate(-899.681 -3803.355)"/>
    <path id="Path_154" data-name="Path 154" d="M1028.975,3812.1c0-.135.073-.2.219-.2h.8a.822.822,0,0,1,.732.4l1.362,2.1,1.357-2.1a.827.827,0,0,1,.731-.4h.8c.143,0,.214.067.214.2a.371.371,0,0,1-.068.2l-2.249,3.476v1.765a.371.371,0,0,1-.115.276.392.392,0,0,1-.28.111h-.79a.4.4,0,0,1-.282-.111.367.367,0,0,1-.117-.276v-1.765l-2.245-3.476a.35.35,0,0,1-.071-.2" transform="translate(-970.532 -3803.355)"/>
  </g>
</svg>
