<svg id="hindustan" xmlns="http://www.w3.org/2000/svg" xmlns:xlink="http://www.w3.org/1999/xlink" width="74.547" height="25.585" viewBox="0 0 74.547 25.585">
  <defs>
    <radialGradient id="radial-gradient" cx="0.168" cy="0.018" r="1.135" gradientUnits="objectBoundingBox">
      <stop offset="0.418" stop-color="#f89b1c"/>
      <stop offset="0.674" stop-color="#81a334"/>
      <stop offset="0.914" stop-color="#16ab4b"/>
    </radialGradient>
    <radialGradient id="radial-gradient-2" cx="-5.319" cy="-7.883" r="22.137" xlink:href="#radial-gradient"/>
    <radialGradient id="radial-gradient-3" cx="-5.31" cy="-9.354" r="21.06" xlink:href="#radial-gradient"/>
  </defs>
  <g id="Component_43_1" data-name="Component 43 – 1" transform="translate(0 0)">
    <path id="Path_134" data-name="Path 134" d="M.714-.572H1.9V-2.734H4.084V-.572H5.269V-5.958H4.084v2.131H1.9V-5.958H.714Zm5.9,0H7.8V-5.958H6.616Zm2.531,0h1.17V-4L12.925-.572h1.008V-5.958h-1.17v3.316L10.24-5.958H9.147Zm6.078,0h2.1a2.7,2.7,0,0,0,2.862-2.693V-3.28a2.685,2.685,0,0,0-2.862-2.678h-2.1Zm1.185-1.07V-4.889h.916a1.547,1.547,0,0,1,1.623,1.623v.015a1.535,1.535,0,0,1-1.623,1.608ZM23.489-.487a2.168,2.168,0,0,0,2.362-2.431V-5.958H24.666v3.085c0,.854-.439,1.293-1.162,1.293s-1.162-.454-1.162-1.331V-5.958H21.158V-2.88A2.138,2.138,0,0,0,23.489-.487ZM28.975-.5c1.162,0,1.977-.6,1.977-1.67V-2.18c0-.939-.616-1.331-1.708-1.616-.931-.239-1.162-.354-1.162-.708v-.015c0-.262.239-.469.692-.469a2.527,2.527,0,0,1,1.4.531l.616-.893a3.118,3.118,0,0,0-2-.685,1.685,1.685,0,0,0-1.885,1.623V-4.4c0,1.07.7,1.37,1.785,1.647.9.231,1.085.385,1.085.685v.015c0,.315-.292.508-.777.508A2.471,2.471,0,0,1,27.39-2.2l-.7.839A3.427,3.427,0,0,0,28.975-.5Zm4.147-.077h1.185V-4.865h1.639V-5.958H31.483v1.093h1.639Zm2.578,0h1.208L37.4-1.78h2.278L40.17-.572h1.239L39.1-6H38.008Zm2.124-2.254.716-1.747.716,1.747ZM42.24-.572h1.17V-4L46.018-.572h1.008V-5.958h-1.17v3.316L43.333-5.958H42.24Z" transform="translate(27.521 16.113)" fill="#f89938"/>
    <g id="Group_643" data-name="Group 643">
      <circle id="Ellipse_9" data-name="Ellipse 9" cx="12.642" cy="12.642" r="12.642" fill="#fff"/>
      <path id="Path_14" data-name="Path 14" d="M84.4,73.445V66.979h4.354a12.792,12.792,0,1,0,.009,6.466Zm-8.052-5.385L72.823,72.2h3.525v1.247H71.011V72.364l3.525-4.138H71.12V66.979h5.228Zm6.355.185H79.224v1.312H82.7v1.266H79.224v1.358H82.7v1.266h-4.88V66.979H82.7Z" transform="translate(-63.807 -57.436)" fill="url(#radial-gradient)"/>
      <path id="Path_15" data-name="Path 15" d="M1799.239,902.748V904l3.222-.02a12.267,12.267,0,0,0-.129-1.232Z" transform="translate(-1777.134 -891.913)" fill="url(#radial-gradient-2)"/>
      <path id="Path_16" data-name="Path 16" d="M1799.239,1104h3.1a12.276,12.276,0,0,0,.128-1.316l-3.227.02Z" transform="translate(-1777.134 -1089.283)" fill="url(#radial-gradient-3)"/>
    </g>
  </g>
</svg>
